<?xml version="1.0" encoding="UTF-8"?>
<svg id="Layer_1" viewBox="0 0 200 200" xmlns="http://www.w3.org/2000/svg">
	<path fill="#71CB9F" class="cls-1" d="m185.27,38.22c-3.95-5.41-10.08-9.19-16.87-9.44-6.69-.25-12.67,3.23-17.66,7.36-5.23,4.34-10,9.47-14.28,14.74-5.69,7.01-10.42,14.93-13.07,23.44-2.38-8.93-6.27-17.4-12.44-24.43-3.63-4.14-8.07-7.73-13.05-10.11-5.16-2.47-11.88-4.68-17.15-1.32-4.3,2.74-6.7,8.15-6.29,13.19.47,5.72,4.05,10.46,8.53,13.81,5.8,4.32,13.01,5.87,19.85,7.72,6.2,1.67,12.56,3.79,16.91,8.79.08.1.18.18.28.26.44,2.31.78,4.64,1.05,6.97,0,.02,0,.04.01.06t0,.02h0c.27,2.25.48,4.48.65,6.72h0c.13,1.66.24,3.3.34,4.95.41,6.93.73,13.97-.96,20.75-1.02.49-1.97,1.2-2.83,2.02-1.14,1.08-3,3.98-4.86,3.64-.76-.14-1.41-.98-1.95-1.48-.93-.87-1.9-1.66-3.09-2.15-2.74-1.13-6.06-.58-8.48,1.07-2.03,1.38-3.5,3.29-4.69,5.38-1.78-.84-3.48-1.86-5.22-2.78-9.08-4.8-19.33-5.69-29.43-5.34-4.9.17-9.78.57-14.67.85-4.74.28-9.48.53-14.21.91-1.35.12-2.5,1.07-2.5,2.5,0,1.27,1.15,2.62,2.5,2.5,7.69-.63,15.41-.96,23.11-1.46,9.11-.59,18.52-.88,27.29,2.03,4.4,1.46,8.18,4.15,12.44,5.91,2.27.94,4.64,1.46,7.1,1.5,2.59.05,5.15-.4,7.73-.56,2.32-.14,4.67-.07,6.97.29,2.15.33,4.53.78,6.51,1.72.39.19,1.16.54,1.35.96.29.64-.42,1.3-.83,1.71-.25.25-.52.48-.8.7-.02.01-.03.02-.05.03-.11.08-.21.16-.31.25-1.24.92-2.67,1.63-4.02,2.27-8.64,4.1-18.81,3.75-28.13,3.51-3.22-.08-3.22,4.92,0,5,9.28.24,19.07.41,27.86-2.99,2.19-.85,4.32-1.86,6.29-3.15.28-.18.55-.37.83-.57.03-.02.06-.04.09-.06,1.88-1.31,4.21-2.09,6.32-2.97,3.03-1.26,5.93-2.73,8.86-4.22,7.13-3.62,14.23-7.53,21.83-10.11,2.72-.93,6.12-2.26,8.93-1.46.81.23,1.44.66,1.44,1.75,0,1.43-1.05,2.86-1.95,3.88-2.38,2.73-5.44,4.68-8.42,6.69-3.29,2.21-6.58,4.41-9.92,6.56-13.28,8.54-27.41,16.27-43.12,19.12-7.43,1.35-15.21,1.56-22.63.07-7.51-1.49-14.16-4.94-20.96-8.31-7.06-3.5-14.19-6.37-22.12-7.04-8.36-.7-16.77.74-24.91,2.52-1.11.24-2.21.49-3.32.75-1.14-8.75-.91-17.7.67-26.37.25-1.32-.36-2.69-1.74-3.07-1.22-.33-2.83.41-3.08,1.74-1.89,10.41-1.99,20.96-.32,31.41.22,1.37,1.88,2.03,3.07,1.75,8.42-1.98,16.95-3.97,25.64-3.91,4.19.03,8.32.58,12.33,1.8,3.63,1.11,7.08,2.69,10.49,4.36,7.22,3.54,14.33,7.37,22.27,9.06,8.19,1.74,16.6,1.63,24.84.25,16.51-2.75,31.49-10.86,45.42-19.82,3.52-2.26,7-4.6,10.48-6.94,3.24-2.17,6.63-4.37,9.14-7.4,2.4-2.91,4.45-7.15,2.12-10.74-1.89-2.91-5.53-3.59-8.76-3.22-3.94.45-7.79,1.95-11.43,3.44-1.49.61-2.95,1.25-4.41,1.93-1.78-3.86-6.78-5.52-10.93-3.95-1.23.47-2.32,1.1-3.36,1.89-.5.38-.98.76-1.43,1.19-.29.27-.94,1.19-1.33,1.29-.49.12-1.06-.52-1.41-.85-.81-.76-1.54-1.59-2.31-2.39-1.35-1.39-2.88-2.75-4.75-3.34,1.23-6.05,1.15-12.29.82-18.44-.06-1.05-.12-2.1-.19-3.15h0c5.37-11.53,17.37-17.53,28.84-21.43,7.08-2.41,14.34-4.31,21.32-7.01,3.09-1.2,6.11-2.52,8.67-4.67,2.72-2.29,4.17-5.45,4.59-8.95.79-6.58-1.25-14.04-5.14-19.38Zm-90.86,19.66c4.56,2.38,9.01,5.06,13.09,8.2,2.15,1.66,4.25,3.48,6.11,5.5-6.88-3.01-14.79-4.09-21.75-6.89-4.44-1.79-8.76-4.69-11.08-8.99-1.93-3.56-1.84-8.02.7-11.26,3.2-4.07,8.56-2.65,12.81-.84,4.45,1.89,8.39,4.83,11.73,8.31,4.03,4.19,7.06,9.08,9.31,14.32-1.47-1.4-3.04-2.7-4.62-3.93-4.31-3.34-8.95-6.22-13.78-8.74-2.85-1.49-5.38,2.82-2.52,4.32Zm9.15,73.87c-1.18.07-2.31.05-3.43-.09.59-.92,1.28-1.77,2.14-2.43,1.36-1.04,3.37-1.6,4.86-.54,1.11.79,1.96,1.77,3.02,2.53-2.2.09-4.39.4-6.59.53Zm23.28-4.36c1.5,1.44,2.79,3.1,4.49,4.32,2.3,1.64,4.94,1.45,7.06-.36,1.7-1.45,3.1-3.2,5.47-3.52,1.29-.17,3.02.45,3.54,1.71-.92.46-1.84.92-2.76,1.38-3.96,2-7.9,4.07-11.89,6.04-1.13.56-2.32,1.05-3.53,1.55-.66-3.82-5.76-5.57-9.28-6.36-1.05-.24-2.11-.44-3.18-.59.78-.39,1.51-.9,2.18-1.45,1.47-1.21,2.64-3.24,4.43-4.01,1.35-.57,2.44.31,3.47,1.29Zm58.68-71.06c-.14,2.84-1.29,5.23-3.58,6.95-2.32,1.75-5.17,2.78-7.87,3.77-6.59,2.43-13.38,4.23-20.01,6.51-8.77,3.01-17.86,7.26-24.5,13.87,2.83-7.48,7.98-14.11,14.55-18.62,2.79-1.92,5.81-3.48,9.02-4.57,3.03-1.03,1.73-5.86-1.33-4.82-11.01,3.74-20.07,12.01-25.19,22.36,1.51-8.7,5.69-16.98,10.85-24.07,3.8-5.22,8.24-9.98,12.87-14.46,4.17-4.04,8.93-8.08,14.79-9.24,5.59-1.1,11.24,1.5,14.93,5.65,3.93,4.41,5.78,10.82,5.47,16.67Z"/>
	<path fill="#71CB9F" d="m121.74,96c-.17-2.24-.38-4.47-.65-6.71l.65,6.71Z"/>
</svg>