<?xml version="1.0" encoding="UTF-8"?>
<svg id="Layer_1" viewBox="0 0 200 200" xmlns="http://www.w3.org/2000/svg">
	<defs>
		<style>.cls-1{fill:#71CB9F;}</style>
	</defs>
	<path class="cls-1" d="m189.88,128.88c.72,1.22.22,2.66-.89,3.42-11.26,7.68-23.69,13.77-36.93,17.13-11.34,2.88-23.16,3.75-34.79,2.58-12.36-1.23-24.33-4.56-35.78-9.33-11.07-4.62-22.24-10.53-34.33-11.9-11.7-1.33-23.39,2.25-31.92,10.49-1.57,1.51-4.24.41-4.27-1.77-.04-2.41-.08-4.83-.12-7.24-.32-19.3-.7-38.59-1.13-57.89-.06-2.41-.11-4.82-.17-7.24-.03-1.24-.06-2.49-.09-3.74-.03-1.23.31-2.06.91-3.1,1.75-3.05,4.2-5.6,7.07-7.62,5.64-3.98,12.93-5.51,19.76-5.14,8.45.45,16.45,3.65,24.13,6.95,7.94,3.41,15.78,6.8,24.18,8.92,16.46,4.14,33.77,4.3,50.51,1.91,17.24-2.46,34.05-7.42,50.26-13.7,1.54-.6,3.17.92,3.17,2.41-.02,3.9.07,7.79.16,11.68.16,7.08.25,14.16.35,21.24.13,8.12.53,16.25.6,24.37.02,3.23-4.98,3.22-5,0-.05-4.95-.27-9.9-.35-14.84-.19-12.94-.72-25.89-.75-38.84-12.3,4.61-24.91,8.41-37.81,10.93-24.58,4.79-50.62,4.95-74.3-4.06-5.83-2.22-11.46-4.93-17.26-7.25-5.41-2.18-11.14-4.2-17-4.66-9.15-.74-18.99,2.32-23.64,10.66.14,5.46.26,10.9.38,16.36.4,18.18.75,36.37,1.05,54.56,4.02-3,8.54-5.31,13.35-6.8,6.58-2.03,13.47-2.29,20.26-1.28,12.26,1.82,23.39,7.72,34.74,12.35,11.32,4.62,23.28,7.86,35.5,8.79,11.5.88,23.04-.26,34.13-3.47,11.68-3.38,22.57-8.94,32.6-15.78,1.12-.76,2.78-.2,3.42.9Z"/>
	<path class="cls-1" d="m95.82,77.83c-8.57.74-15.93,4.9-20.74,12.07-4.18,6.23-5.83,14.1-4.28,21.46s6.55,14.19,12.87,18.55,14.64,6.18,22.54,5.01c9.13-1.34,17.37-6.55,22.93-13.84.82-1.07.17-2.8-.9-3.42-1.29-.75-2.6-.18-3.42.9-8.23,10.81-24.09,15.28-36.21,8.53-5.48-3.05-10.06-8.03-12.14-14.01s-1.5-12.53,1.43-18.12c3.62-6.92,10.1-11.45,17.92-12.13,1.35-.12,2.5-1.07,2.5-2.5,0-1.26-1.15-2.62-2.5-2.5h0Z"/>
	<path class="cls-1" d="m110.56,108.24c-1.15-2.14-3.36-3.32-5.67-3.8-.87-.18-1.74-.32-2.61-.48.35-2.74.8-5.47,1.35-8.18.94.37,1.71,1.01,2.12,2,.51,1.25,1.66,2.13,3.07,1.75,1.18-.33,2.27-1.82,1.75-3.08-1.15-2.77-3.32-4.61-5.89-5.44.04-.16.08-.33.12-.49.76-3.13-4.06-4.46-4.83-1.33-.12.48-.23.95-.34,1.43-.64.09-1.29.24-1.92.45-4.72,1.53-9.57,6.07-7,11.4,1.07,2.22,3.29,3.79,5.47,4.81.22.1.43.2.65.28-.25,2.49-.42,4.98-.53,7.47-1.4-.75-2.56-1.87-3.17-3.35-.52-1.24-1.66-2.13-3.07-1.74-1.18.32-2.27,1.82-1.75,3.07,1.46,3.52,4.32,6.18,7.88,7.34,0,.99.01,1.98.03,2.97.07,3.21,5.07,3.22,5,0-.02-.77-.03-1.54-.02-2.31,3.83-.21,7.71-1.95,9.4-5.52,1.07-2.27,1.17-5.01-.04-7.25Zm-15.48-9.29c.48-1.31,1.82-2.36,3.42-2.96-.41,2.1-.75,4.21-1.05,6.33-1.28-.73-2.9-1.91-2.37-3.37Zm8.22,16.64c-.64.24-1.32.38-2.02.44.07-2.38.22-4.75.44-7.12.49.1.98.19,1.48.28,1.66.31,3.35.82,3.24,2.82-.09,1.78-1.57,2.99-3.14,3.58Z"/>
</svg>